<?xml version="1.0" standalone="no"?>
<!DOCTYPE svg PUBLIC "-//W3C//DTD SVG 20010904//EN"
 "http://www.w3.org/TR/2001/REC-SVG-20010904/DTD/svg10.dtd">
<svg version="1.0" xmlns="http://www.w3.org/2000/svg"
 width="1906.000000pt" height="825.000000pt" viewBox="0 0 1906.000000 825.000000"
 preserveAspectRatio="xMidYMid meet">

<g transform="translate(0.000000,825.000000) scale(0.100000,-0.100000)"
fill="#000000" stroke="none">
<path d="M4175 5856 c-450 -62 -892 -277 -1310 -639 -131 -113 -358 -342 -505
-508 l-138 -156 -98 98 -99 99 -236 0 -237 0 -28 57 c-36 72 -74 96 -150 96
-132 0 -212 -133 -152 -253 58 -115 231 -123 297 -13 l26 42 225 1 225 0 89
-89 c65 -66 86 -92 80 -103 -19 -32 -133 -166 -213 -250 l-85 -88 -303 0 -303
0 -15 37 c-21 50 -42 72 -90 94 -121 56 -245 -27 -245 -163 0 -63 24 -108 77
-144 89 -60 220 -23 255 71 l12 35 321 0 322 0 57 60 c32 33 59 60 60 60 2 0
44 -51 94 -114 447 -564 958 -1013 1413 -1242 253 -127 483 -192 759 -216 419
-36 838 82 1288 363 341 212 726 574 1079 1015 l145 181 50 -54 51 -53 316 0
317 0 12 -35 c24 -65 115 -114 187 -101 44 9 94 44 122 85 17 25 23 48 23 89
0 136 -124 219 -245 163 -48 -22 -69 -44 -90 -94 l-15 -37 -299 0 -299 0 -64
73 c-36 39 -104 121 -151 181 l-87 108 74 82 74 81 208 3 209 2 20 -36 c64
-119 237 -115 300 7 19 36 19 122 0 158 -34 67 -118 108 -188 92 -68 -16 -105
-54 -131 -133 -5 -16 -24 -18 -221 -18 l-216 0 -87 -90 -87 -90 -105 127
c-135 165 -474 505 -615 617 -357 285 -711 452 -1110 527 -143 26 -428 34
-570 15z m519 -181 c307 -46 597 -162 868 -344 356 -240 653 -532 990 -974
l89 -118 -76 -97 c-212 -270 -505 -581 -707 -749 -361 -301 -712 -489 -1059
-567 -404 -90 -805 -39 -1189 153 -323 161 -566 341 -894 661 -216 211 -536
570 -536 601 0 17 208 273 337 414 386 422 752 709 1104 866 351 156 715 208
1073 154z m-3253 -874 c41 -42 41 -101 -1 -143 -27 -27 -36 -30 -72 -25 -59 8
-93 45 -92 99 1 34 8 47 33 70 43 39 92 38 132 -1z m5960 19 c22 -12 49 -61
49 -89 0 -52 -48 -101 -100 -101 -91 0 -131 125 -57 182 25 20 78 23 108 8z
m-6262 -616 c30 -21 51 -71 44 -107 -13 -69 -118 -103 -168 -53 -46 46 -45
103 1 149 31 32 86 36 123 11z m6617 -2 c83 -67 39 -182 -69 -182 -80 0 -120
114 -61 174 32 31 97 36 130 8z"/>
<path d="M4235 5573 c-369 -48 -714 -245 -923 -528 -110 -149 -210 -382 -247
-576 -20 -109 -21 -326 0 -442 47 -265 161 -489 354 -689 122 -127 237 -214
376 -282 212 -104 369 -140 610 -140 127 0 181 5 262 22 285 62 505 182 697
382 274 286 411 664 376 1039 -27 287 -147 559 -347 781 -205 228 -467 370
-782 425 -76 14 -298 18 -376 8z m396 -123 c538 -110 929 -530 1000 -1075 21
-161 -5 -369 -65 -529 -175 -464 -568 -770 -1046 -815 -115 -11 -280 -1 -389
24 -309 71 -593 261 -760 509 -144 212 -211 430 -211 681 0 600 422 1101 1019
1209 120 22 334 20 452 -4z"/>
<path d="M5059 4923 c-40 -24 -62 -69 -57 -112 5 -36 5 -37 -114 -128 l-119
-93 -42 11 c-85 23 -155 -38 -144 -125 6 -39 5 -41 -101 -151 l-107 -110 -48
4 c-43 3 -52 0 -81 -28 l-33 -32 -95 22 c-90 21 -96 23 -107 54 -15 43 -66 70
-114 61 -50 -9 -77 -46 -77 -106 0 -46 -1 -48 -103 -147 l-104 -101 -39 10
c-106 29 -190 -107 -111 -179 49 -45 80 -52 131 -28 42 20 67 65 65 114 -3 38
1 43 101 138 l103 98 47 -3 c39 -3 52 1 78 23 l32 27 92 -18 c86 -18 92 -21
105 -51 29 -72 119 -88 175 -33 26 26 29 36 27 79 l-3 49 106 111 105 111 45
-6 c79 -11 137 42 138 128 1 30 11 41 118 124 114 89 118 91 144 78 57 -29
122 -3 152 60 48 101 -70 208 -165 149z m99 -63 c28 -26 28 -48 0 -77 -25 -27
-45 -29 -76 -7 -28 19 -29 57 -2 84 26 26 50 25 78 0z m-426 -327 c22 -20 23
-56 2 -77 -32 -33 -94 -12 -94 31 0 54 54 81 92 46z m-772 -313 c23 -43 -20
-92 -60 -70 -25 13 -36 55 -20 75 19 22 67 19 80 -5z m381 -60 c22 -12 26 -59
7 -78 -19 -19 -55 -14 -72 10 -20 29 -20 34 4 58 23 23 33 24 61 10z m-757
-279 c24 -26 17 -62 -15 -80 -24 -13 -29 -13 -53 2 -16 11 -26 27 -26 42 0 50
60 73 94 36z"/>
<path d="M4890 3770 c0 -275 3 -500 8 -500 15 0 126 67 197 120 l75 55 0 413
0 412 -140 0 -140 0 0 -500z"/>
<path d="M4480 3540 l0 -380 24 0 c25 0 141 23 209 41 l37 10 0 354 0 355
-135 0 -135 0 0 -380z"/>
<path d="M4062 3428 l3 -233 60 -12 c33 -7 93 -15 133 -19 l72 -7 0 252 0 251
-135 0 -135 0 2 -232z"/>
<path d="M13682 4949 c-215 -28 -391 -139 -508 -320 -129 -199 -150 -484 -54
-711 64 -150 183 -275 328 -344 116 -55 179 -68 332 -68 154 -1 203 10 340 76
69 33 101 56 171 127 148 149 211 305 211 526 0 146 -22 240 -84 358 -100 188
-278 312 -503 352 -94 16 -135 17 -233 4z m241 -214 c91 -24 146 -55 219 -123
216 -204 209 -568 -16 -780 -94 -89 -207 -132 -346 -132 -150 0 -271 51 -368
154 -125 134 -170 322 -123 508 48 187 181 322 367 373 66 18 197 18 267 0z"/>
<path d="M8570 4228 l0 -693 100 3 100 3 2 297 3 297 293 3 293 2 -3 88 -3 87
-292 3 -293 2 0 205 0 205 320 0 320 0 0 95 0 95 -420 0 -420 0 0 -692z"/>
<path d="M16960 4195 l0 -655 93 0 93 0 -1 653 -2 652 -91 3 -92 3 0 -656z"/>
<path d="M11510 4575 l0 -135 -80 0 -80 0 0 -80 0 -80 80 0 80 0 0 -268 c0
-357 15 -409 135 -467 46 -23 68 -27 133 -27 76 0 142 12 172 31 12 8 12 20 1
88 -7 43 -14 79 -15 80 0 1 -26 -5 -56 -13 -89 -23 -152 1 -170 65 -7 22 -10
126 -8 271 l3 235 123 3 122 3 0 79 0 80 -125 0 -125 0 0 135 0 135 -95 0 -95
0 0 -135z"/>
<path d="M9723 4441 c-35 -10 -82 -31 -105 -46 -48 -30 -98 -75 -98 -86 0 -4
27 -34 59 -67 l59 -60 28 30 c72 76 215 102 299 55 49 -27 85 -93 85 -155 0
-41 -1 -44 -22 -37 -13 4 -76 9 -140 12 -100 5 -126 2 -186 -16 -38 -11 -91
-35 -117 -53 -130 -89 -151 -287 -42 -405 63 -68 105 -86 217 -91 117 -5 187
17 248 78 22 22 41 40 43 40 2 0 2 -22 1 -50 l-4 -50 96 0 96 0 0 319 c0 295
-2 324 -21 386 -27 87 -88 152 -175 185 -83 32 -234 37 -321 11z m290 -507
c42 -6 46 -20 26 -98 -24 -96 -107 -155 -217 -156 -106 0 -152 38 -152 125 0
38 5 57 20 73 59 63 159 80 323 56z"/>
<path d="M10793 4440 c-47 -16 -75 -33 -113 -71 l-50 -50 0 61 0 60 -95 0 -95
0 0 -450 0 -450 95 0 95 0 0 255 c0 285 7 336 54 398 45 60 101 88 175 88 85
1 126 -24 167 -101 17 -32 19 -65 22 -337 l4 -303 94 0 95 0 -3 338 -3 337
-28 61 c-54 116 -143 175 -277 181 -55 2 -91 -2 -137 -17z"/>
<path d="M12310 4444 c-30 -8 -73 -24 -95 -34 -41 -20 -115 -83 -115 -97 0 -5
27 -35 60 -68 l60 -59 37 36 c52 50 99 68 181 68 123 0 185 -53 199 -170 l6
-53 -29 7 c-115 29 -268 23 -369 -15 -144 -54 -217 -200 -175 -351 16 -57 70
-120 130 -153 51 -28 62 -30 160 -30 95 0 111 3 162 28 31 15 68 41 82 58 14
16 27 29 30 29 3 0 6 -22 6 -50 l0 -50 90 0 90 0 1 168 c0 92 1 214 3 272 5
302 -55 414 -249 466 -65 18 -195 17 -265 -2z m298 -510 c19 -6 22 -13 22 -59
0 -43 -6 -62 -32 -101 -44 -65 -101 -94 -184 -94 -112 0 -164 38 -164 120 0
74 47 120 143 140 42 9 172 5 215 -6z"/>
<path d="M15023 4430 c-57 -13 -123 -60 -154 -108 -16 -25 -29 -42 -30 -36 0
5 0 37 1 72 l1 62 -95 0 -96 0 0 -440 0 -440 94 0 95 0 3 263 3 263 30 59 c23
45 42 66 79 90 44 27 58 30 128 30 l78 0 0 91 0 92 -31 6 c-38 7 -64 6 -106
-4z"/>
<path d="M15490 4429 c-76 -13 -147 -48 -205 -102 l-50 -46 60 -60 59 -61 41
40 c53 52 100 70 182 70 79 0 136 -26 164 -75 20 -33 30 -131 14 -128 -151 25
-200 25 -310 1 -164 -36 -259 -155 -241 -305 9 -74 27 -114 74 -161 60 -60
136 -85 242 -80 100 5 154 28 213 91 l37 40 0 -56 0 -57 90 0 90 0 0 295 c0
301 -6 368 -40 435 -27 53 -99 115 -162 138 -67 25 -182 34 -258 21z m245
-498 c29 -6 30 -8 27 -60 -3 -61 -18 -94 -59 -133 -40 -38 -94 -58 -159 -58
-99 0 -154 45 -154 128 0 54 37 97 98 116 48 15 193 19 247 7z"/>
<path d="M16414 4425 c-203 -44 -344 -230 -344 -454 0 -210 114 -374 299 -432
105 -32 237 -22 331 26 46 23 117 81 131 107 12 22 -5 45 -74 100 l-37 30 -37
-32 c-51 -45 -109 -70 -167 -70 -106 0 -177 43 -223 138 -24 49 -28 68 -27
142 0 67 5 95 22 131 47 95 126 148 220 149 66 0 109 -18 164 -68 l43 -40 62
51 c34 29 62 57 62 62 2 19 -93 103 -144 129 -47 23 -152 47 -200 45 -11 0
-48 -7 -81 -14z"/>
<path d="M17590 4425 c-160 -45 -270 -171 -308 -353 -43 -211 53 -419 237
-510 75 -37 76 -37 200 -37 147 0 200 16 300 90 89 66 91 73 24 126 -83 65
-79 64 -120 23 -55 -55 -114 -78 -203 -78 -58 -1 -84 4 -115 21 -69 37 -116
100 -130 176 l-7 37 268 0 c148 0 293 3 322 6 l52 7 0 86 c-1 242 -152 408
-380 417 -56 3 -103 -1 -140 -11z m186 -160 c77 -23 131 -82 149 -162 l7 -33
-231 0 -231 0 6 28 c20 83 91 151 179 173 47 11 68 10 121 -6z"/>
</g>
</svg>
